<svg width="13" height="16" viewBox="0 0 13 16" fill="none" xmlns="http://www.w3.org/2000/svg">
<path d="M0.75 8C0.551088 8 0.360322 8.07902 0.21967 8.21967C0.0790178 8.36032 0 8.55109 0 8.75V14.75C0 14.9489 0.0790178 15.1397 0.21967 15.2803C0.360322 15.421 0.551088 15.5 0.75 15.5C0.948912 15.5 1.13968 15.421 1.28033 15.2803C1.42098 15.1397 1.5 14.9489 1.5 14.75V8.75C1.5 8.55109 1.42098 8.36032 1.28033 8.21967C1.13968 8.07902 0.948912 8 0.75 8ZM4.5 0.5C4.30109 0.5 4.11032 0.579018 3.96967 0.71967C3.82902 0.860322 3.75 1.05109 3.75 1.25V14.75C3.75 14.9489 3.82902 15.1397 3.96967 15.2803C4.11032 15.421 4.30109 15.5 4.5 15.5C4.69891 15.5 4.88968 15.421 5.03033 15.2803C5.17098 15.1397 5.25 14.9489 5.25 14.75V1.25C5.25 1.05109 5.17098 0.860322 5.03033 0.71967C4.88968 0.579018 4.69891 0.5 4.5 0.5ZM12 11C11.8011 11 11.6103 11.079 11.4697 11.2197C11.329 11.3603 11.25 11.5511 11.25 11.75V14.75C11.25 14.9489 11.329 15.1397 11.4697 15.2803C11.6103 15.421 11.8011 15.5 12 15.5C12.1989 15.5 12.3897 15.421 12.5303 15.2803C12.671 15.1397 12.75 14.9489 12.75 14.75V11.75C12.75 11.5511 12.671 11.3603 12.5303 11.2197C12.3897 11.079 12.1989 11 12 11ZM8.25 5C8.05109 5 7.86032 5.07902 7.71967 5.21967C7.57902 5.36032 7.5 5.55109 7.5 5.75V14.75C7.5 14.9489 7.57902 15.1397 7.71967 15.2803C7.86032 15.421 8.05109 15.5 8.25 15.5C8.44891 15.5 8.63968 15.421 8.78033 15.2803C8.92098 15.1397 9 14.9489 9 14.75V5.75C9 5.55109 8.92098 5.36032 8.78033 5.21967C8.63968 5.07902 8.44891 5 8.25 5Z" fill="#94A3B8"/>
</svg>
